<svg width="105" height="36" viewBox="0 0 105 36" fill="none" xmlns="http://www.w3.org/2000/svg">
<rect x="8" width="97" height="28" fill="#FFD249"/>
<path d="M4.95 13.58C3.15 13.58 1.89 12.41 1.89 12.41L0.18 15.11C0.18 15.11 1.8 17.27 5.76 17.27C8.91 17.27 10.89 15.29 10.89 13.22C10.89 9.26 6.03 9.26 6.03 8.36C6.03 8.09 6.3 7.82 6.75 7.82C8.01 7.82 9.09 8.81 9.09 8.81L10.8 6.11C10.8 6.11 9.18 4.13 5.94 4.13C2.79 4.13 0.81 6.11 0.81 8.18C0.81 12.14 5.67 12.14 5.67 13.04C5.67 13.31 5.4 13.58 4.95 13.58ZM11.97 10.7C11.97 14.39 14.85 17.27 18.63 17.27C22.05 17.27 23.67 15.29 23.67 15.29L21.51 11.87C21.51 11.87 20.43 12.86 19.17 12.86C17.91 12.86 17.01 11.96 17.01 10.7C17.01 9.44 17.91 8.54 19.17 8.54C20.43 8.54 21.51 9.53 21.51 9.53L23.67 6.11C23.67 6.11 22.05 4.13 18.63 4.13C14.85 4.13 11.97 7.01 11.97 10.7ZM29.7893 4.4H25.1093V17H29.7893V12.68H32.6693V17H37.3493V4.4H32.6693V8.72H29.7893V4.4ZM48.1458 10.7C48.1458 11.96 47.2458 12.86 46.1658 12.86C45.0858 12.86 44.1858 11.96 44.1858 10.7C44.1858 9.44 45.0858 8.54 46.1658 8.54C47.2458 8.54 48.1458 9.44 48.1458 10.7ZM53.1858 10.7C53.1858 7.01 50.3058 4.13 46.1658 4.13C42.0258 4.13 39.1458 7.01 39.1458 10.7C39.1458 14.39 42.0258 17.27 46.1658 17.27C50.3058 17.27 53.1858 14.39 53.1858 10.7ZM63.6321 10.7C63.6321 11.96 62.7321 12.86 61.6521 12.86C60.5721 12.86 59.6721 11.96 59.6721 10.7C59.6721 9.44 60.5721 8.54 61.6521 8.54C62.7321 8.54 63.6321 9.44 63.6321 10.7ZM68.6721 10.7C68.6721 7.01 65.7921 4.13 61.6521 4.13C57.5121 4.13 54.6321 7.01 54.6321 10.7C54.6321 14.39 57.5121 17.27 61.6521 17.27C65.7921 17.27 68.6721 14.39 68.6721 10.7ZM75.1584 4.4H70.4784V17H80.0184V12.86H75.1584V4.4ZM6.48 20.22C3.6 20.22 1.08 20.4 1.08 20.4V33H5.76V28.95C5.76 28.95 6.66 29.04 7.38 29.04C10.44 29.04 12.24 27.24 12.24 24.63C12.24 22.02 10.44 20.22 6.48 20.22ZM5.76 25.62V23.64H6.48C7.11 23.64 7.56 24.09 7.56 24.63C7.56 25.17 7.11 25.62 6.48 25.62H5.76ZM22.4993 26.7C22.4993 27.96 21.5993 28.86 20.5193 28.86C19.4393 28.86 18.5393 27.96 18.5393 26.7C18.5393 25.44 19.4393 24.54 20.5193 24.54C21.5993 24.54 22.4993 25.44 22.4993 26.7ZM27.5393 26.7C27.5393 23.01 24.6593 20.13 20.5193 20.13C16.3793 20.13 13.4993 23.01 13.4993 26.7C13.4993 30.39 16.3793 33.27 20.5193 33.27C24.6593 33.27 27.5393 30.39 27.5393 26.7ZM41.7656 33L38.7056 28.14C38.7056 28.14 40.3256 27.24 40.3256 24.63C40.3256 22.02 38.5256 20.22 34.5656 20.22C31.8656 20.22 29.3456 20.4 29.3456 20.4V33H34.0256V28.86H34.2056L36.3656 33H41.7656ZM34.0256 25.62V23.64H34.5656C35.1956 23.64 35.6456 24.09 35.6456 24.63C35.6456 25.17 35.1956 25.62 34.5656 25.62H34.0256ZM41.4225 20.4V24.54H44.8425V33H49.5225V24.54H52.9425V20.4H41.4225ZM66.7969 33L63.7369 28.14C63.7369 28.14 65.3569 27.24 65.3569 24.63C65.3569 22.02 63.5569 20.22 59.5969 20.22C56.8969 20.22 54.3769 20.4 54.3769 20.4V33H59.0569V28.86H59.2369L61.3969 33H66.7969ZM59.0569 25.62V23.64H59.5969C60.2269 23.64 60.6769 24.09 60.6769 24.63C60.6769 25.17 60.2269 25.62 59.5969 25.62H59.0569ZM76.4353 20.4H70.3153L66.6253 33H71.8453L72.2053 31.2H74.5453L74.9053 33H80.1253C80.1253 33 76.4533 20.472 76.4353 20.4ZM72.7453 28.32L73.3753 25.08L74.0053 28.32H72.7453ZM86.0569 20.4H81.3769V33H86.0569V20.4ZM87.4948 20.4V24.54H90.9148V33H95.5948V24.54H99.0148V20.4H87.4948Z" fill="black"/>
</svg>
